<svg xmlns="http://www.w3.org/2000/svg" viewBox="0 0 49.12 51"><defs><style>.cls-1{fill:gray;}</style></defs><g id="Layer_2" data-name="Layer 2"><g id="Layer_1-2" data-name="Layer 1"><path class="cls-1" d="M48.45,44.09l-9.57-9.93a2.23,2.23,0,0,0-1.63-.69H35.69a21.12,21.12,0,0,0,4.22-12.75C39.91,9.27,31,0,20,0S0,9.27,0,20.72,8.93,41.43,20,41.43a19.4,19.4,0,0,0,12.28-4.38v1.62a2.41,2.41,0,0,0,.67,1.7l9.56,9.93a2.24,2.24,0,0,0,3.25,0l2.72-2.82A2.48,2.48,0,0,0,48.45,44.09ZM20,33.47A12.51,12.51,0,0,1,7.68,20.72,12.51,12.51,0,0,1,20,8,12.52,12.52,0,0,1,32.24,20.72,12.52,12.52,0,0,1,20,33.47Z"/></g></g></svg>